<?xml version="1.0" encoding="us-ascii" standalone="no"?><svg xmlns="http://www.w3.org/2000/svg" xmlns:xlink="http://www.w3.org/1999/xlink" contentStyleType="text/css" height="84px" preserveAspectRatio="none" style="width:322px;height:84px;background:#FFFFFF;" version="1.1" viewBox="0 0 322 84" width="322px" zoomAndPan="magnify"><defs/><g><line style="stroke:#C0C0C0;stroke-width:1.0;" x1="0" x2="0" y1="0" y2="68.4141"/><line style="stroke:#C0C0C0;stroke-width:1.0;" x1="16" x2="16" y1="0" y2="68.4141"/><line style="stroke:#C0C0C0;stroke-width:1.0;" x1="32" x2="32" y1="0" y2="68.4141"/><line style="stroke:#C0C0C0;stroke-width:1.0;" x1="48" x2="48" y1="0" y2="68.4141"/><line style="stroke:#C0C0C0;stroke-width:1.0;" x1="64" x2="64" y1="0" y2="68.4141"/><line style="stroke:#C0C0C0;stroke-width:1.0;" x1="80" x2="80" y1="0" y2="68.4141"/><line style="stroke:#C0C0C0;stroke-width:1.0;" x1="96" x2="96" y1="0" y2="68.4141"/><line style="stroke:#C0C0C0;stroke-width:1.0;" x1="112" x2="112" y1="0" y2="68.4141"/><line style="stroke:#C0C0C0;stroke-width:1.0;" x1="128" x2="128" y1="0" y2="68.4141"/><line style="stroke:#C0C0C0;stroke-width:1.0;" x1="144" x2="144" y1="0" y2="68.4141"/><line style="stroke:#C0C0C0;stroke-width:1.0;" x1="160" x2="160" y1="0" y2="68.4141"/><line style="stroke:#C0C0C0;stroke-width:1.0;" x1="176" x2="176" y1="0" y2="68.4141"/><line style="stroke:#C0C0C0;stroke-width:1.0;" x1="192" x2="192" y1="0" y2="68.4141"/><line style="stroke:#C0C0C0;stroke-width:1.0;" x1="208" x2="208" y1="0" y2="68.4141"/><line style="stroke:#C0C0C0;stroke-width:1.0;" x1="224" x2="224" y1="0" y2="68.4141"/><line style="stroke:#C0C0C0;stroke-width:1.0;" x1="240" x2="240" y1="0" y2="68.4141"/><line style="stroke:#C0C0C0;stroke-width:1.0;" x1="256" x2="256" y1="0" y2="68.4141"/><line style="stroke:#C0C0C0;stroke-width:1.0;" x1="272" x2="272" y1="0" y2="68.4141"/><line style="stroke:#C0C0C0;stroke-width:1.0;" x1="288" x2="288" y1="0" y2="68.4141"/><line style="stroke:#C0C0C0;stroke-width:1.0;" x1="304" x2="304" y1="0" y2="68.4141"/><line style="stroke:#C0C0C0;stroke-width:1.0;" x1="320" x2="320" y1="0" y2="68.4141"/><text fill="#000000" font-family="Serif" font-size="10" lengthAdjust="spacing" textLength="7" x="4.5" y="9.2822">1</text><text fill="#000000" font-family="Serif" font-size="10" lengthAdjust="spacing" textLength="6" x="21" y="9.2822">2</text><text fill="#000000" font-family="Serif" font-size="10" lengthAdjust="spacing" textLength="7" x="36.5" y="9.2822">3</text><text fill="#000000" font-family="Serif" font-size="10" lengthAdjust="spacing" textLength="7" x="52.5" y="9.2822">4</text><text fill="#000000" font-family="Serif" font-size="10" lengthAdjust="spacing" textLength="6" x="69" y="9.2822">5</text><text fill="#000000" font-family="Serif" font-size="10" lengthAdjust="spacing" textLength="7" x="84.5" y="9.2822">6</text><text fill="#000000" font-family="Serif" font-size="10" lengthAdjust="spacing" textLength="7" x="100.5" y="9.2822">7</text><text fill="#000000" font-family="Serif" font-size="10" lengthAdjust="spacing" textLength="7" x="116.5" y="9.2822">8</text><text fill="#000000" font-family="Serif" font-size="10" lengthAdjust="spacing" textLength="7" x="132.5" y="9.2822">9</text><text fill="#000000" font-family="Serif" font-size="10" lengthAdjust="spacing" textLength="14" x="145" y="9.2822">10</text><text fill="#000000" font-family="Serif" font-size="10" lengthAdjust="spacing" textLength="14" x="161" y="9.2822">11</text><text fill="#000000" font-family="Serif" font-size="10" lengthAdjust="spacing" textLength="13" x="177.5" y="9.2822">12</text><text fill="#000000" font-family="Serif" font-size="10" lengthAdjust="spacing" textLength="14" x="193" y="9.2822">13</text><text fill="#000000" font-family="Serif" font-size="10" lengthAdjust="spacing" textLength="14" x="209" y="9.2822">14</text><text fill="#000000" font-family="Serif" font-size="10" lengthAdjust="spacing" textLength="13" x="225.5" y="9.2822">15</text><text fill="#000000" font-family="Serif" font-size="10" lengthAdjust="spacing" textLength="14" x="241" y="9.2822">16</text><text fill="#000000" font-family="Serif" font-size="10" lengthAdjust="spacing" textLength="14" x="257" y="9.2822">17</text><text fill="#000000" font-family="Serif" font-size="10" lengthAdjust="spacing" textLength="14" x="273" y="9.2822">18</text><text fill="#000000" font-family="Serif" font-size="10" lengthAdjust="spacing" textLength="14" x="289" y="9.2822">19</text><text fill="#000000" font-family="Serif" font-size="10" lengthAdjust="spacing" textLength="13" x="305.5" y="9.2822">20</text><line style="stroke:#C0C0C0;stroke-width:1.0;" x1="0" x2="320" y1="0" y2="0"/><line style="stroke:#C0C0C0;stroke-width:1.0;" x1="0" x2="320" y1="13" y2="13"/><rect fill="#E2E2F0" height="12.8047" style="stroke:none;stroke-width:1.0;" width="236" x="2" y="18"/><line style="stroke:#181818;stroke-width:1.0;" x1="2" x2="238" y1="18" y2="18"/><line style="stroke:#181818;stroke-width:1.0;" x1="2" x2="238" y1="30.8047" y2="30.8047"/><line style="stroke:#181818;stroke-width:1.0;" x1="2" x2="2" y1="18" y2="30.8047"/><line style="stroke:#181818;stroke-width:1.0;" x1="238" x2="238" y1="18" y2="30.8047"/><rect fill="#E2E2F0" height="12.8047" style="stroke:none;stroke-width:1.0;" width="156" x="2" y="34.8047"/><line style="stroke:#181818;stroke-width:1.0;" x1="2" x2="158" y1="34.8047" y2="34.8047"/><line style="stroke:#181818;stroke-width:1.0;" x1="2" x2="158" y1="47.6094" y2="47.6094"/><line style="stroke:#181818;stroke-width:1.0;" x1="2" x2="2" y1="34.8047" y2="47.6094"/><line style="stroke:#181818;stroke-width:1.0;" x1="158" x2="158" y1="34.8047" y2="47.6094"/><rect fill="#E2E2F0" height="12.8047" style="stroke:none;stroke-width:1.0;" width="316" x="2" y="51.6094"/><line style="stroke:#181818;stroke-width:1.0;" x1="2" x2="318" y1="51.6094" y2="51.6094"/><line style="stroke:#181818;stroke-width:1.0;" x1="2" x2="318" y1="64.4141" y2="64.4141"/><line style="stroke:#181818;stroke-width:1.0;" x1="2" x2="2" y1="51.6094" y2="64.4141"/><line style="stroke:#181818;stroke-width:1.0;" x1="318" x2="318" y1="51.6094" y2="64.4141"/><text fill="#000000" font-family="sans-serif" font-size="11" lengthAdjust="spacing" textLength="96" x="6" y="28.2104">Prototype design</text><text fill="#000000" font-family="sans-serif" font-size="11" lengthAdjust="spacing" textLength="84" x="6" y="45.0151">Test prototype</text><text fill="#000000" font-family="sans-serif" font-size="11" lengthAdjust="spacing" textLength="95" x="6" y="61.8198">Test prototype 2</text><line style="stroke:#C0C0C0;stroke-width:1.0;" x1="0" x2="0" y1="69.4141" y2="82.4141"/><line style="stroke:#C0C0C0;stroke-width:1.0;" x1="16" x2="16" y1="69.4141" y2="82.4141"/><line style="stroke:#C0C0C0;stroke-width:1.0;" x1="32" x2="32" y1="69.4141" y2="82.4141"/><line style="stroke:#C0C0C0;stroke-width:1.0;" x1="48" x2="48" y1="69.4141" y2="82.4141"/><line style="stroke:#C0C0C0;stroke-width:1.0;" x1="64" x2="64" y1="69.4141" y2="82.4141"/><line style="stroke:#C0C0C0;stroke-width:1.0;" x1="80" x2="80" y1="69.4141" y2="82.4141"/><line style="stroke:#C0C0C0;stroke-width:1.0;" x1="96" x2="96" y1="69.4141" y2="82.4141"/><line style="stroke:#C0C0C0;stroke-width:1.0;" x1="112" x2="112" y1="69.4141" y2="82.4141"/><line style="stroke:#C0C0C0;stroke-width:1.0;" x1="128" x2="128" y1="69.4141" y2="82.4141"/><line style="stroke:#C0C0C0;stroke-width:1.0;" x1="144" x2="144" y1="69.4141" y2="82.4141"/><line style="stroke:#C0C0C0;stroke-width:1.0;" x1="160" x2="160" y1="69.4141" y2="82.4141"/><line style="stroke:#C0C0C0;stroke-width:1.0;" x1="176" x2="176" y1="69.4141" y2="82.4141"/><line style="stroke:#C0C0C0;stroke-width:1.0;" x1="192" x2="192" y1="69.4141" y2="82.4141"/><line style="stroke:#C0C0C0;stroke-width:1.0;" x1="208" x2="208" y1="69.4141" y2="82.4141"/><line style="stroke:#C0C0C0;stroke-width:1.0;" x1="224" x2="224" y1="69.4141" y2="82.4141"/><line style="stroke:#C0C0C0;stroke-width:1.0;" x1="240" x2="240" y1="69.4141" y2="82.4141"/><line style="stroke:#C0C0C0;stroke-width:1.0;" x1="256" x2="256" y1="69.4141" y2="82.4141"/><line style="stroke:#C0C0C0;stroke-width:1.0;" x1="272" x2="272" y1="69.4141" y2="82.4141"/><line style="stroke:#C0C0C0;stroke-width:1.0;" x1="288" x2="288" y1="69.4141" y2="82.4141"/><line style="stroke:#C0C0C0;stroke-width:1.0;" x1="304" x2="304" y1="69.4141" y2="82.4141"/><line style="stroke:#C0C0C0;stroke-width:1.0;" x1="320" x2="320" y1="69.4141" y2="82.4141"/><text fill="#000000" font-family="Serif" font-size="10" lengthAdjust="spacing" textLength="7" x="4.5" y="78.6963">1</text><text fill="#000000" font-family="Serif" font-size="10" lengthAdjust="spacing" textLength="6" x="21" y="78.6963">2</text><text fill="#000000" font-family="Serif" font-size="10" lengthAdjust="spacing" textLength="7" x="36.5" y="78.6963">3</text><text fill="#000000" font-family="Serif" font-size="10" lengthAdjust="spacing" textLength="7" x="52.5" y="78.6963">4</text><text fill="#000000" font-family="Serif" font-size="10" lengthAdjust="spacing" textLength="6" x="69" y="78.6963">5</text><text fill="#000000" font-family="Serif" font-size="10" lengthAdjust="spacing" textLength="7" x="84.5" y="78.6963">6</text><text fill="#000000" font-family="Serif" font-size="10" lengthAdjust="spacing" textLength="7" x="100.5" y="78.6963">7</text><text fill="#000000" font-family="Serif" font-size="10" lengthAdjust="spacing" textLength="7" x="116.5" y="78.6963">8</text><text fill="#000000" font-family="Serif" font-size="10" lengthAdjust="spacing" textLength="7" x="132.5" y="78.6963">9</text><text fill="#000000" font-family="Serif" font-size="10" lengthAdjust="spacing" textLength="14" x="145" y="78.6963">10</text><text fill="#000000" font-family="Serif" font-size="10" lengthAdjust="spacing" textLength="14" x="161" y="78.6963">11</text><text fill="#000000" font-family="Serif" font-size="10" lengthAdjust="spacing" textLength="13" x="177.5" y="78.6963">12</text><text fill="#000000" font-family="Serif" font-size="10" lengthAdjust="spacing" textLength="14" x="193" y="78.6963">13</text><text fill="#000000" font-family="Serif" font-size="10" lengthAdjust="spacing" textLength="14" x="209" y="78.6963">14</text><text fill="#000000" font-family="Serif" font-size="10" lengthAdjust="spacing" textLength="13" x="225.5" y="78.6963">15</text><text fill="#000000" font-family="Serif" font-size="10" lengthAdjust="spacing" textLength="14" x="241" y="78.6963">16</text><text fill="#000000" font-family="Serif" font-size="10" lengthAdjust="spacing" textLength="14" x="257" y="78.6963">17</text><text fill="#000000" font-family="Serif" font-size="10" lengthAdjust="spacing" textLength="14" x="273" y="78.6963">18</text><text fill="#000000" font-family="Serif" font-size="10" lengthAdjust="spacing" textLength="14" x="289" y="78.6963">19</text><text fill="#000000" font-family="Serif" font-size="10" lengthAdjust="spacing" textLength="13" x="305.5" y="78.6963">20</text><line style="stroke:#C0C0C0;stroke-width:1.0;" x1="0" x2="320" y1="69.4141" y2="69.4141"/><!--SRC=[ROv1Ru9048Nl-olc20UDKciQJwQjRMCW8GMyc1vM6Cb6c26x0mt_lcijFNcQl7dVotjR9zfAhKb47LFBmZ9s21KwKzCNDDg9W-KZL7fqwfYZ4-WcwjzUtBKXce3e3zWYLRSgbJR-5aaC0rfdc60vZnRHmtnzGj6heA0ByJT1oMrd6WGnBOOgU4zZSDpRqYyqJgmvzUB3eThhGSDdJrTk0rSLv4a8sMvwmeu6OvbQ957xGtA3u8CbwrX-uVLgzcm4ChH-4nmIzOfdtJVYeoLNXkeD5FdRx4d5ckfUrxu8IRsmBx2Zzx8V]--></g></svg>